<svg width="620" height="520" viewBox="0 0 620 520" fill="none" xmlns="http://www.w3.org/2000/svg">
  <defs>
    <linearGradient id="sceneBg" x1="90" y1="70" x2="528" y2="452" gradientUnits="userSpaceOnUse">
      <stop stop-color="#F8F3FF"/>
      <stop offset="1" stop-color="#FFF0F4"/>
    </linearGradient>
    <linearGradient id="sceneOrb1" x1="174" y1="96" x2="264" y2="214" gradientUnits="userSpaceOnUse">
      <stop stop-color="#9D8FFF"/>
      <stop offset="1" stop-color="#7766E7"/>
    </linearGradient>
    <linearGradient id="sceneOrb2" x1="344" y1="124" x2="454" y2="248" gradientUnits="userSpaceOnUse">
      <stop stop-color="#FF9EB0"/>
      <stop offset="1" stop-color="#FE748B"/>
    </linearGradient>
    <filter id="sceneShadow" x="66" y="56" width="488" height="416" filterUnits="userSpaceOnUse" color-interpolation-filters="sRGB">
      <feDropShadow dx="0" dy="22" stdDeviation="22" flood-color="#7766E7" flood-opacity="0.16"/>
    </filter>
  </defs>
  <rect x="82" y="72" width="456" height="360" rx="42" fill="url(#sceneBg)"/>
  <g filter="url(#sceneShadow)">
    <rect x="128" y="124" width="160" height="200" rx="36" fill="#FFFFFF"/>
    <rect x="332" y="108" width="164" height="216" rx="40" fill="#FFFFFF"/>
    <circle cx="206" cy="178" r="34" fill="url(#sceneOrb1)"/>
    <rect x="158" y="236" width="100" height="14" rx="7" fill="#E9E2FF"/>
    <rect x="158" y="260" width="82" height="14" rx="7" fill="#F2ECFF"/>
    <circle cx="414" cy="180" r="38" fill="url(#sceneOrb2)"/>
    <rect x="364" y="244" width="98" height="14" rx="7" fill="#FFE0E7"/>
    <rect x="364" y="268" width="72" height="14" rx="7" fill="#FFF0F4"/>
    <path d="M286 206C300.667 187.333 318.333 178 339 178C359.667 178 377.333 187.333 392 206" stroke="#B6A9FF" stroke-width="12" stroke-linecap="round"/>
    <circle cx="310" cy="102" r="30" fill="#7766E7"/>
    <path d="M300 102H320" stroke="white" stroke-width="8" stroke-linecap="round"/>
    <path d="M310 92V112" stroke="white" stroke-width="8" stroke-linecap="round"/>
  </g>
  <g opacity="0.92">
    <circle cx="124" cy="414" r="24" fill="#7766E7" fill-opacity="0.12"/>
    <circle cx="494" cy="104" r="20" fill="#FE748B" fill-opacity="0.16"/>
    <circle cx="522" cy="382" r="28" fill="#7766E7" fill-opacity="0.14"/>
  </g>
</svg>
